# xmcd CD database file
#
# Track frame offsets:
#	150
#	9735
#	28650
#	46270
#	65362
#	82350
#	101602
#	124280
#	141087
#	157775
#	171995
#	189007
#	203322
#	220775
#	238707
#	256902
#	270445
#	293910
#
# Disc length: 4180 seconds
#
# Revision: 0
# Processed by: cddbd v1.5.1PL2 Copyright (c) Steve Scherf et al.
# Submitted via: CDex 1.51
#
DISCID=f6105212
DTITLE=Various Artist - MAHARAJA NIGHT HOUSE REVOLUTION VOL.12
DYEAR=1995
DGENRE=House
TTITLE0=TO HELL and BACK (FM VERSION)
TTITLE1=BREAKIN' UP (LP VERSION)
TTITLE2=DREAM ABOUT YOUR LOVE (RADIO EDIT)
TTITLE3=DRIVIN' THROUGH THE NIGHT (RAW D. EDIT)
TTITLE4=I MUST BE FREE (LOVE TO INFINITYS CLASSIC PARADISE EDIT)
TTITLE5=MAKE ME FLY (RADIO EDIT)
TTITLE6=GOT TO MOVE (SHORT POWER MIX)
TTITLE7=WAR IN HEAVEN (EX CLUB EDIT)
TTITLE8=GUN BACK (KEEP ON 7" MIX)
TTITLE9=DOWN DA HOUSE (FM VERSION)
TTITLE10=READY (RADIO EDIT)
TTITLE11=FUNKY FEELING (CONTINENTAL RADIO MIX)
TTITLE12=NOWHERE LAND (RADIO EDIT)
TTITLE13=KEEP GIVIN' ALL MY LOVE YOU (D.J. CABRIO EDIT)
TTITLE14=YOU TAKE MY BODY (RADIO EDIT)
TTITLE15=SWEET EMOTION (FM VERSION)
TTITLE16=HYPER HYPER (VIDEO EDIT)
TTITLE17=THE BIG BEAT (LP VERSION)
EXTD=YEAR: 1995
EXTT0=
EXTT1=
EXTT2=
EXTT3=
EXTT4=
EXTT5=
EXTT6=
EXTT7=
EXTT8=
EXTT9=
EXTT10=
EXTT11=
EXTT12=
EXTT13=
EXTT14=
EXTT15=
EXTT16=
EXTT17=
PLAYORDER=
